<svg xmlns="http://www.w3.org/2000/svg" xmlns:svg="http://www.w3.org/2000/svg" style="enable-background:new" id="svg8" width="32" height="32" version="1.1"><metadata id="metadata14"/><g id="g818" transform="matrix(2,0,0,2,0,-32)"><path style="fill:#a40;fill-opacity:1;fill-rule:evenodd;stroke:none;stroke-width:1.14285707" id="path2" d="M 8.0000702,32 C 12.418274,32 16,28.418286 16,24 16,19.581714 12.418274,16 8.0000702,16 3.5817358,16 0,19.581714 0,24 c 0,4.418286 3.5817358,8 8.0000702,8"/><path style="fill:#d45500;fill-opacity:1;fill-rule:evenodd;stroke:none;stroke-width:1.11914313" id="path4" d="m 8.0000702,31.428571 c 4.1026068,0 7.4284938,-3.18946 7.4284938,-7.123598 0,-3.934248 -3.325887,-7.123489 -7.4284938,-7.123489 -4.1027586,0 -7.42864878,3.189241 -7.42864878,7.123489 0,3.934138 3.32589018,7.123598 7.42864878,7.123598"/></g></svg>