<svg xmlns="http://www.w3.org/2000/svg" xmlns:svg="http://www.w3.org/2000/svg" style="enable-background:new" id="svg8" width="32" height="32" version="1.1"><metadata id="metadata14"/><g id="g817" transform="matrix(2,0,0,2,0,-32)"><path style="fill:#a40;fill-opacity:1;fill-rule:evenodd;stroke:none;stroke-width:1.14285707" id="path2" d="M 8.0000702,32 C 12.418274,32 16,28.418286 16,24 16,19.581714 12.418274,16 8.0000702,16 3.5817358,16 0,19.581714 0,24 c 0,4.418286 3.5817358,8 8.0000702,8"/><path style="fill:#d45500;fill-opacity:1;fill-rule:evenodd;stroke:none;stroke-width:1.11914313" id="path4" d="m 8.0000702,31.428571 c 4.1026068,0 7.4284938,-3.18946 7.4284938,-7.123598 0,-3.934248 -3.325887,-7.123489 -7.4284938,-7.123489 -4.1027586,0 -7.42864878,3.189241 -7.42864878,7.123489 0,3.934138 3.32589018,7.123598 7.42864878,7.123598"/><path style="opacity:.5;fill:#000;fill-opacity:1;stroke:none;stroke-width:2.2419734;stroke-linecap:round;stroke-linejoin:round;stroke-miterlimit:4;stroke-dasharray:none;stroke-opacity:1;enable-background:new" id="path4-3" d="m 4.865345,20.802402 c -0.4391321,0.439091 -0.4391321,1.146098 0,1.5853 l 1.585314,1.5853 -1.585314,1.585298 c -0.4391321,0.439202 -0.4391321,1.146208 0,1.585299 0.4391319,0.439202 1.146182,0.439202 1.585314,0 L 8.0359738,25.5583 9.6212887,27.143599 c 0.4391323,0.439202 1.1461823,0.439202 1.5853143,0 0.439132,-0.439091 0.439132,-1.146097 0,-1.585299 l -1.5853143,-1.585298 1.5853143,-1.5853 c 0.439132,-0.439202 0.439132,-1.146209 0,-1.5853 -0.439132,-0.439201 -1.146182,-0.439201 -1.5853143,0 l -1.5853149,1.5853 -1.5853148,-1.5853 c -0.439132,-0.439201 -1.1461821,-0.439201 -1.585314,0 z"/></g></svg>