<svg xmlns="http://www.w3.org/2000/svg" xmlns:svg="http://www.w3.org/2000/svg" style="enable-background:new" id="svg8" width="32" height="32" version="1.1"><metadata id="metadata14"/><g id="g817" transform="matrix(2,0,0,2,0,-32)"><path style="fill:#333;fill-opacity:1;fill-rule:evenodd;stroke:none;stroke-width:1.14285707" id="path2" d="M 8.0000702,32 C 12.418274,32 16,28.418286 16,24 16,19.581714 12.418274,16 8.0000702,16 3.5817358,16 0,19.581714 0,24 c 0,4.418286 3.5817358,8 8.0000702,8"/><path style="opacity:1;fill:#666;fill-opacity:1;fill-rule:evenodd;stroke:none;stroke-width:1.11112607" id="path4" d="m 8.0000702,31.428571 c 4.1026068,0 7.4284938,-3.143927 7.4284938,-7.021902 0,-3.878083 -3.325887,-7.021795 -7.4284938,-7.021795 -4.1027583,0 -7.42864855,3.143711 -7.42864855,7.021795 0,3.877975 3.32589025,7.021902 7.42864855,7.021902"/><path style="opacity:.5;fill:#000;fill-opacity:1;stroke:none;stroke-width:2.33333302;stroke-linecap:round;stroke-linejoin:round;stroke-miterlimit:4;stroke-dasharray:none;stroke-opacity:1;enable-background:new" id="path6" d="m 6.16474,20.488 5.35026,5.350216 v -4.183549 c 0,-0.48475 -0.681917,-1.166667 -1.166667,-1.166667 z m -1.6497396,1.649783 v 4.183549 c 0,0.48475 0.6819163,1.166668 1.1666663,1.166668 h 4.1835941 z"/></g></svg>