<svg xmlns="http://www.w3.org/2000/svg" xmlns:svg="http://www.w3.org/2000/svg" style="enable-background:new" id="svg8" width="32" height="32" version="1.1"><metadata id="metadata14"/><g id="g13" transform="scale(2)"><path style="fill:#aeaeae;fill-opacity:1;fill-rule:evenodd;stroke:none;stroke-width:1.14285707" id="path2" d="M 8.0000702,16 C 12.418274,16 16,12.418286 16,8 16,3.5817144 12.418274,2e-7 8.0000702,2e-7 3.5817358,2e-7 0,3.5817144 0,8 c 0,4.418286 3.5817358,8 8.0000702,8"/><path style="opacity:1;fill:silver;fill-opacity:1;fill-rule:evenodd;stroke:none;stroke-width:1.11112607" id="path4" d="m 8.0000702,15.428571 c 4.1026068,0 7.4284938,-3.143927 7.4284938,-7.0219023 0,-3.8780832 -3.325887,-7.0217948 -7.4284938,-7.0217948 -4.1027583,0 -7.42864855,3.1437116 -7.42864855,7.0217948 0,3.8779753 3.32589025,7.0219023 7.42864855,7.0219023"/><path style="opacity:.5;fill:#000;fill-opacity:1;stroke:none;stroke-width:2.33333302;stroke-linecap:round;stroke-linejoin:round;stroke-miterlimit:4;stroke-dasharray:none;stroke-opacity:1;enable-background:new" id="path6" d="M 6.16474,4.4879998 11.515,9.8382161 V 5.6546665 c 0,-0.48475 -0.681917,-1.1666667 -1.166667,-1.1666667 z M 4.5150004,6.1377831 v 4.1835489 c 0,0.48475 0.6819163,1.166668 1.1666663,1.166668 h 4.1835941 z"/></g></svg>