<svg xmlns="http://www.w3.org/2000/svg" xmlns:svg="http://www.w3.org/2000/svg" id="svg26" width="24" height="24" version="1.1" viewBox="0 0 6.35 6.35"><defs id="defs7"><linearGradient id="linearGradient3856-6-9" x1="398.38" x2="398.38" y1="513.91" y2="503.7" gradientTransform="matrix(1.1378,0,0,1.1378,-637.4,-1105.4)" gradientUnits="userSpaceOnUse"><stop id="stop2" offset="0" stop-color="#aaa"/><stop id="stop4" offset="1" stop-color="#949494"/></linearGradient></defs><metadata id="metadata9"/><g id="g24" transform="matrix(1.5714053,0,0,1.5714053,-0.15093888,-460.20798)"><g id="checkbox-unchecked" transform="matrix(0.21704,0,0,0.21704,-6.4337,351.74)"><g id="g21" transform="translate(221.69,266.77)"><rect id="rect11" width="14.933" height="14.933" x="-536.22" y="174.83" rx="1.067" transform="rotate(90)" style="fill:#fff;stroke-width:1.06669998"/><g id="g19"><rect id="rect13" width="17.067" height="17.067" x="-190.83" y="-537.28" rx="3.484" ry="3.484" style="fill:url(#linearGradient3856-6-9)"/><rect id="rect15" width="14.791" height="14.791" x="-189.69" y="-536.15" rx="3.02" ry="3.02" style="fill:#fff"/><path id="path17" d="m -186.67,-536.15 c -1.673,0 -3.0222,1.3492 -3.0222,3.0222 v 1.1378 c 0,-1.673 1.3492,-3.0222 3.0222,-3.0222 h 8.7467 c 1.673,0 3.0222,1.3492 3.0222,3.0222 v -1.1378 c 0,-1.673 -1.3492,-3.0222 -3.0222,-3.0222 z" style="opacity:.2"/></g></g></g></g></svg>